<svg xmlns="http://www.w3.org/2000/svg" xmlns:xlink="http://www.w3.org/1999/xlink" id="terminal" baseProfile="full" viewBox="0 0 640 427" width="640" version="1.1">
    <defs>
        <termtosvg:template_settings xmlns:termtosvg="https://github.com/nbedos/termtosvg">
            <termtosvg:screen_geometry columns="80" rows="25"/>
            <termtosvg:animation type="css"/>
        </termtosvg:template_settings>
        <style type="text/css" id="generated-style"><![CDATA[#screen {
                font-family: 'DejaVu Sans Mono', monospace;
                font-style: normal;
                font-size: 14px;
            }

        text {
            dominant-baseline: text-before-edge;
            white-space: pre;
        }
    
            :root {
                --animation-duration: 121154ms;
            }

            @keyframes roll {
                0.000%{transform:translateY(0px)}
0.163%{transform:translateY(-442px)}
1.203%{transform:translateY(-884px)}
1.205%{transform:translateY(-1326px)}
2.209%{transform:translateY(-1768px)}
2.280%{transform:translateY(-2210px)}
3.599%{transform:translateY(-2652px)}
4.163%{transform:translateY(-3094px)}
6.554%{transform:translateY(-3536px)}
7.401%{transform:translateY(-3978px)}
7.402%{transform:translateY(-4420px)}
9.463%{transform:translateY(-4862px)}
10.186%{transform:translateY(-5304px)}
10.188%{transform:translateY(-5746px)}
12.673%{transform:translateY(-6188px)}
13.557%{transform:translateY(-6630px)}
13.559%{transform:translateY(-7072px)}
16.428%{transform:translateY(-7514px)}
17.224%{transform:translateY(-7956px)}
17.224%{transform:translateY(-8398px)}
19.231%{transform:translateY(-8840px)}
20.073%{transform:translateY(-9282px)}
20.074%{transform:translateY(-9724px)}
23.997%{transform:translateY(-10166px)}
24.532%{transform:translateY(-10608px)}
24.533%{transform:translateY(-11050px)}
30.237%{transform:translateY(-11492px)}
30.890%{transform:translateY(-11934px)}
30.891%{transform:translateY(-12376px)}
30.977%{transform:translateY(-12818px)}
32.773%{transform:translateY(-13260px)}
33.860%{transform:translateY(-13702px)}
33.885%{transform:translateY(-14144px)}
35.253%{transform:translateY(-14586px)}
35.929%{transform:translateY(-15028px)}
37.510%{transform:translateY(-15470px)}
38.016%{transform:translateY(-15912px)}
38.017%{transform:translateY(-16354px)}
38.461%{transform:translateY(-16796px)}
38.914%{transform:translateY(-17238px)}
38.916%{transform:translateY(-17680px)}
39.412%{transform:translateY(-18122px)}
39.865%{transform:translateY(-18564px)}
39.867%{transform:translateY(-19006px)}
41.419%{transform:translateY(-19448px)}
41.930%{transform:translateY(-19890px)}
41.932%{transform:translateY(-20332px)}
43.365%{transform:translateY(-20774px)}
43.871%{transform:translateY(-21216px)}
43.872%{transform:translateY(-21658px)}
45.257%{transform:translateY(-22100px)}
45.868%{transform:translateY(-22542px)}
45.870%{transform:translateY(-22984px)}
48.132%{transform:translateY(-23426px)}
48.528%{transform:translateY(-23868px)}
48.530%{transform:translateY(-24310px)}
50.880%{transform:translateY(-24752px)}
51.255%{transform:translateY(-25194px)}
51.257%{transform:translateY(-25636px)}
53.807%{transform:translateY(-26078px)}
54.254%{transform:translateY(-26520px)}
54.255%{transform:translateY(-26962px)}
54.337%{transform:translateY(-27404px)}
57.918%{transform:translateY(-27846px)}
58.689%{transform:translateY(-28288px)}
58.710%{transform:translateY(-28730px)}
60.936%{transform:translateY(-29172px)}
61.461%{transform:translateY(-29614px)}
63.538%{transform:translateY(-30056px)}
64.045%{transform:translateY(-30498px)}
64.047%{transform:translateY(-30940px)}
68.018%{transform:translateY(-31382px)}
68.383%{transform:translateY(-31824px)}
68.384%{transform:translateY(-32266px)}
72.816%{transform:translateY(-32708px)}
73.096%{transform:translateY(-33150px)}
73.098%{transform:translateY(-33592px)}
76.174%{transform:translateY(-34034px)}
76.472%{transform:translateY(-34476px)}
76.474%{transform:translateY(-34918px)}
80.913%{transform:translateY(-35360px)}
81.284%{transform:translateY(-35802px)}
81.286%{transform:translateY(-36244px)}
83.597%{transform:translateY(-36686px)}
83.976%{transform:translateY(-37128px)}
83.977%{transform:translateY(-37570px)}
89.735%{transform:translateY(-38012px)}
90.346%{transform:translateY(-38454px)}
90.347%{transform:translateY(-38896px)}
94.018%{transform:translateY(-39338px)}
94.411%{transform:translateY(-39780px)}
94.413%{transform:translateY(-40222px)}
96.504%{transform:translateY(-40664px)}
96.886%{transform:translateY(-41106px)}
96.887%{transform:translateY(-41548px)}
96.990%{transform:translateY(-41990px)}
98.064%{transform:translateY(-42432px)}
98.322%{transform:translateY(-42874px)}
98.573%{transform:translateY(-43316px)}
98.712%{transform:translateY(-43758px)}
99.172%{transform:translateY(-44200px)}
99.175%{transform:translateY(-44642px)}
100.000%{transform:translateY(-44642px)}
            }

            #screen_view {
                animation-duration: 121154ms;
                animation-iteration-count:infinite;
                animation-name:roll;
                animation-timing-function: steps(1,end);
                animation-fill-mode: forwards;
            }
        ]]></style>
        <style type="text/css" id="user-style">
            /* The colors defined below are the default 16 colors used for rendering text of the terminal. Adjust
               them as needed.
               PowerShell colors based on https://en.wikipedia.org/wiki/ANSI_escape_code#Colors */
            .foreground {fill: #cccccc;}
            .background {fill: #0c0c0c;}
            .color0 {fill: #0c0c0c;}
            .color1 {fill: #c50f1f;}
            .color2 {fill: #13a10e;}
            .color3 {fill: #c19c00;}
            .color4 {fill: #0037da;}
            .color5 {fill: #881798;}
            .color6 {fill: #3a96dd;}
            .color7 {fill: #cccccc;}
            .color8 {fill: #767676;}
            .color9 {fill: #e74856;}
            .color10 {fill: #16c60c;}
            .color11 {fill: #f9f1a5;}
            .color12 {fill: #3b78ff;}
            .color13 {fill: #b4009e;}
            .color14 {fill: #61d6d6;}
            .color15 {fill: #f2f2f2;}
        </style>
    </defs>
    <svg id="screen" width="640" height="425" viewBox="0 0 640 425" preserveAspectRatio="xMidYMin slice">
    <rect class="background" height="100%" width="100%" x="0" y="0"/><defs><g id="g1"><text x="0" textLength="328" class="foreground">The default interactive shell is now zsh.</text></g><g id="g2"><text x="0" textLength="520" class="foreground">To update your account to use zsh, please run `chsh -s /bin/zsh`.</text></g><g id="g3"><text x="0" textLength="552" class="foreground">For more details, please visit https://support.apple.com/kb/HT208050.</text></g><g id="g4"><text x="0" textLength="8" class="background"> </text></g><g id="g5"><text x="0" textLength="8" class="foreground">(</text><text x="8" textLength="32" class="color4">base</text><text x="40" textLength="16" class="foreground">) </text><text x="56" textLength="8" class="color2">&#10004;</text><text x="64" textLength="8" class="foreground"> </text><text x="72" textLength="352" class="color3">~/code/elsmog.github.io/projects/tic-tac-toe</text><text x="424" textLength="16" class="foreground"> [</text><text x="440" textLength="48" class="color5">master</text><text x="488" textLength="8" class="foreground">|</text><text x="496" textLength="24" class="color4">&#10010; 1</text><text x="520" textLength="16" class="foreground">] </text></g><g id="g6"><text x="0" textLength="40" class="color7">13:05</text><text x="40" textLength="24" class="foreground"> $ </text><text x="64" textLength="8" class="background"> </text></g><g id="g7"><text x="0" textLength="40" class="color7">13:05</text><text x="40" textLength="32" class="foreground"> $ p</text><text x="72" textLength="8" class="background"> </text></g><g id="g8"><text x="0" textLength="40" class="color7">13:05</text><text x="40" textLength="280" class="foreground"> $ python tic_tac_toe_refactored.py</text><text x="320" textLength="8" class="background"> </text></g><g id="g9"><text x="0" textLength="40" class="color7">13:05</text><text x="40" textLength="280" class="foreground"> $ python tic_tac_toe_refactored.py</text></g><g id="g10"><text x="0" textLength="256" class="foreground">Player 1, please choose X or O: </text><text x="256" textLength="8" class="background"> </text></g><g id="g11"><text x="0" textLength="264" class="foreground">Player 1, please choose X or O: x</text><text x="264" textLength="8" class="background"> </text></g><g id="g12"><text x="0" textLength="344" class="foreground">   |   |               choices:  1 | 2 | 3 </text></g><g id="g13"><text x="0" textLength="352" class="foreground">-----------                      -----------</text></g><g id="g14"><text x="0" textLength="344" class="foreground">   |   |                         4 | 5 | 6 </text></g><g id="g15"><text x="0" textLength="344" class="foreground">   |   |                         7 | 8 | 9 </text></g><g id="g16"><text x="0" textLength="8" class="foreground"> </text></g><g id="g17"><text x="0" textLength="232" class="foreground">Please enter a number 1 - 9: </text><text x="232" textLength="8" class="background"> </text></g><g id="g18"><text x="0" textLength="240" class="foreground">Please enter a number 1 - 9: 1</text><text x="240" textLength="8" class="background"> </text></g><g id="g19"><text x="0" textLength="240" class="foreground">Please enter a number 1 - 9: 1</text></g><g id="g20"><text x="0" textLength="344" class="foreground"> X |   |               choices:  1 | 2 | 3 </text></g><g id="g21"><text x="0" textLength="240" class="foreground">Please enter a number 1 - 9: 8</text><text x="240" textLength="8" class="background"> </text></g><g id="g22"><text x="0" textLength="240" class="foreground">Please enter a number 1 - 9: 8</text></g><g id="g23"><text x="0" textLength="344" class="foreground">   | O |                         7 | 8 | 9 </text></g><g id="g24"><text x="0" textLength="240" class="foreground">Please enter a number 1 - 9: 5</text><text x="240" textLength="8" class="background"> </text></g><g id="g25"><text x="0" textLength="240" class="foreground">Please enter a number 1 - 9: 5</text></g><g id="g26"><text x="0" textLength="344" class="foreground">   | X |                         4 | 5 | 6 </text></g><g id="g27"><text x="0" textLength="240" class="foreground">Please enter a number 1 - 9: 9</text><text x="240" textLength="8" class="background"> </text></g><g id="g28"><text x="0" textLength="240" class="foreground">Please enter a number 1 - 9: 9</text></g><g id="g29"><text x="0" textLength="344" class="foreground">   | O | O                       7 | 8 | 9 </text></g><g id="g30"><text x="0" textLength="240" class="foreground">Please enter a number 1 - 9: 7</text><text x="240" textLength="8" class="background"> </text></g><g id="g31"><text x="0" textLength="240" class="foreground">Please enter a number 1 - 9: 7</text></g><g id="g32"><text x="0" textLength="344" class="foreground"> X | O | O                       7 | 8 | 9 </text></g><g id="g33"><text x="0" textLength="240" class="foreground">Please enter a number 1 - 9: 4</text><text x="240" textLength="8" class="background"> </text></g><g id="g34"><text x="0" textLength="240" class="foreground">Please enter a number 1 - 9: 4</text></g><g id="g35"><text x="0" textLength="344" class="foreground"> O | X |                         4 | 5 | 6 </text></g><g id="g36"><text x="0" textLength="240" class="foreground">Please enter a number 1 - 9: 3</text><text x="240" textLength="8" class="background"> </text></g><g id="g37"><text x="0" textLength="240" class="foreground">Please enter a number 1 - 9: 3</text></g><g id="g38"><text x="0" textLength="344" class="foreground"> X |   | X             choices:  1 | 2 | 3 </text></g><g id="g39"><text x="0" textLength="320" class="foreground">Congratulations, Player X, you have won!</text></g><g id="g40"><text x="0" textLength="40" class="color7">13:06</text><text x="40" textLength="24" class="foreground"> $ </text><text x="64" textLength="8" class="background"> </text></g><g id="g41"><text x="0" textLength="40" class="color7">13:06</text><text x="40" textLength="280" class="foreground"> $ python tic_tac_toe_refactored.py</text><text x="320" textLength="8" class="background"> </text></g><g id="g42"><text x="0" textLength="40" class="color7">13:06</text><text x="40" textLength="280" class="foreground"> $ python tic_tac_toe_refactored.py</text></g><g id="g43"><text x="0" textLength="240" class="foreground">Please enter a number 1 - 9: 2</text><text x="240" textLength="8" class="background"> </text></g><g id="g44"><text x="0" textLength="240" class="foreground">Please enter a number 1 - 9: 2</text></g><g id="g45"><text x="0" textLength="344" class="foreground"> X | O |               choices:  1 | 2 | 3 </text></g><g id="g46"><text x="0" textLength="344" class="foreground"> X | O | X             choices:  1 | 2 | 3 </text></g><g id="g47"><text x="0" textLength="344" class="foreground"> O |   |                         4 | 5 | 6 </text></g><g id="g48"><text x="0" textLength="240" class="foreground">Please enter a number 1 - 9: 6</text><text x="240" textLength="8" class="background"> </text></g><g id="g49"><text x="0" textLength="240" class="foreground">Please enter a number 1 - 9: 6</text></g><g id="g50"><text x="0" textLength="344" class="foreground"> O |   | X                       4 | 5 | 6 </text></g><g id="g51"><text x="0" textLength="344" class="foreground"> O | O | X                       4 | 5 | 6 </text></g><g id="g52"><text x="0" textLength="344" class="foreground">   | X |                         7 | 8 | 9 </text></g><g id="g53"><text x="0" textLength="344" class="foreground"> O | X |                         7 | 8 | 9 </text></g><g id="g54"><text x="0" textLength="344" class="foreground"> O | X | X                       7 | 8 | 9 </text></g><g id="g55"><text x="0" textLength="264" class="foreground">Player 1, please choose X or O: o</text><text x="264" textLength="8" class="background"> </text></g><g id="g56"><text x="0" textLength="344" class="foreground">   |   | O                       7 | 8 | 9 </text></g><g id="g57"><text x="0" textLength="344" class="foreground">   | X | O                       7 | 8 | 9 </text></g><g id="g58"><text x="0" textLength="344" class="foreground">   |   | O                       4 | 5 | 6 </text></g><g id="g59"><text x="0" textLength="344" class="foreground">   |   | X             choices:  1 | 2 | 3 </text></g><g id="g60"><text x="0" textLength="344" class="foreground">   | O | X             choices:  1 | 2 | 3 </text></g><g id="g61"><text x="0" textLength="344" class="foreground">   | X | O                       4 | 5 | 6 </text></g><g id="g62"><text x="0" textLength="344" class="foreground"> O | X | O                       7 | 8 | 9 </text></g><g id="g63"><text x="0" textLength="344" class="foreground"> X | X | O                       4 | 5 | 6 </text></g><g id="g64"><text x="0" textLength="344" class="foreground"> O | O | X             choices:  1 | 2 | 3 </text></g><g id="g65"><text x="0" textLength="88" class="foreground">It's a tie!</text></g><g id="g66"><text x="0" textLength="40" class="color7">13:07</text><text x="40" textLength="24" class="foreground"> $ </text><text x="64" textLength="8" class="background"> </text></g><g id="g67"><text x="0" textLength="40" class="color7">13:07</text><text x="40" textLength="32" class="foreground"> $ e</text><text x="72" textLength="8" class="background"> </text></g><g id="g68"><text x="0" textLength="40" class="color7">13:07</text><text x="40" textLength="40" class="foreground"> $ ex</text><text x="80" textLength="8" class="background"> </text></g><g id="g69"><text x="0" textLength="40" class="color7">13:07</text><text x="40" textLength="48" class="foreground"> $ exi</text><text x="88" textLength="8" class="background"> </text></g><g id="g70"><text x="0" textLength="40" class="color7">13:07</text><text x="40" textLength="56" class="foreground"> $ exit</text><text x="96" textLength="8" class="background"> </text></g><g id="g71"><text x="0" textLength="40" class="color7">13:07</text><text x="40" textLength="56" class="foreground"> $ exit</text></g><g id="g72"><text x="0" textLength="32" class="foreground">exit</text></g></defs><g id="screen_view"><g><use xlink:href="#g1" y="17"/><use xlink:href="#g2" y="34"/><use xlink:href="#g3" y="51"/><rect x="0" y="68" width="8" height="17" class="foreground"/><use xlink:href="#g4" y="68"/></g><g><use xlink:href="#g1" y="459"/><use xlink:href="#g2" y="476"/><use xlink:href="#g3" y="493"/><use xlink:href="#g5" y="510"/><rect x="64" y="527" width="8" height="17" class="foreground"/><use xlink:href="#g6" y="527"/></g><g><use xlink:href="#g1" y="901"/><use xlink:href="#g2" y="918"/><use xlink:href="#g3" y="935"/><use xlink:href="#g5" y="952"/><rect x="72" y="969" width="8" height="17" class="foreground"/><use xlink:href="#g7" y="969"/></g><g><use xlink:href="#g1" y="1343"/><use xlink:href="#g2" y="1360"/><use xlink:href="#g3" y="1377"/><use xlink:href="#g5" y="1394"/><rect x="320" y="1411" width="8" height="17" class="foreground"/><use xlink:href="#g8" y="1411"/></g><g><use xlink:href="#g1" y="1785"/><use xlink:href="#g2" y="1802"/><use xlink:href="#g3" y="1819"/><use xlink:href="#g5" y="1836"/><use xlink:href="#g9" y="1853"/><rect x="0" y="1870" width="8" height="17" class="foreground"/><use xlink:href="#g4" y="1870"/></g><g><rect x="256" y="2618" width="8" height="17" class="foreground"/><use xlink:href="#g10" y="2618"/></g><g><rect x="264" y="3060" width="8" height="17" class="foreground"/><use xlink:href="#g11" y="3060"/></g><g><use xlink:href="#g12" y="3400"/><use xlink:href="#g13" y="3417"/><use xlink:href="#g14" y="3434"/><use xlink:href="#g13" y="3451"/><use xlink:href="#g15" y="3468"/><use xlink:href="#g16" y="3485"/><rect x="232" y="3502" width="8" height="17" class="foreground"/><use xlink:href="#g17" y="3502"/></g><g><use xlink:href="#g12" y="3842"/><use xlink:href="#g13" y="3859"/><use xlink:href="#g14" y="3876"/><use xlink:href="#g13" y="3893"/><use xlink:href="#g15" y="3910"/><use xlink:href="#g16" y="3927"/><rect x="240" y="3944" width="8" height="17" class="foreground"/><use xlink:href="#g18" y="3944"/></g><g><use xlink:href="#g12" y="4267"/><use xlink:href="#g13" y="4284"/><use xlink:href="#g14" y="4301"/><use xlink:href="#g13" y="4318"/><use xlink:href="#g15" y="4335"/><use xlink:href="#g16" y="4352"/><use xlink:href="#g19" y="4369"/><rect x="0" y="4386" width="8" height="17" class="foreground"/><use xlink:href="#g4" y="4386"/></g><g><use xlink:href="#g20" y="4726"/><use xlink:href="#g13" y="4743"/><use xlink:href="#g14" y="4760"/><use xlink:href="#g13" y="4777"/><use xlink:href="#g15" y="4794"/><use xlink:href="#g16" y="4811"/><rect x="232" y="4828" width="8" height="17" class="foreground"/><use xlink:href="#g17" y="4828"/></g><g><use xlink:href="#g20" y="5168"/><use xlink:href="#g13" y="5185"/><use xlink:href="#g14" y="5202"/><use xlink:href="#g13" y="5219"/><use xlink:href="#g15" y="5236"/><use xlink:href="#g16" y="5253"/><rect x="240" y="5270" width="8" height="17" class="foreground"/><use xlink:href="#g21" y="5270"/></g><g><use xlink:href="#g20" y="5593"/><use xlink:href="#g13" y="5610"/><use xlink:href="#g14" y="5627"/><use xlink:href="#g13" y="5644"/><use xlink:href="#g15" y="5661"/><use xlink:href="#g16" y="5678"/><use xlink:href="#g22" y="5695"/><rect x="0" y="5712" width="8" height="17" class="foreground"/><use xlink:href="#g4" y="5712"/></g><g><use xlink:href="#g20" y="6052"/><use xlink:href="#g13" y="6069"/><use xlink:href="#g14" y="6086"/><use xlink:href="#g13" y="6103"/><use xlink:href="#g23" y="6120"/><use xlink:href="#g16" y="6137"/><rect x="232" y="6154" width="8" height="17" class="foreground"/><use xlink:href="#g17" y="6154"/></g><g><use xlink:href="#g20" y="6494"/><use xlink:href="#g13" y="6511"/><use xlink:href="#g14" y="6528"/><use xlink:href="#g13" y="6545"/><use xlink:href="#g23" y="6562"/><use xlink:href="#g16" y="6579"/><rect x="240" y="6596" width="8" height="17" class="foreground"/><use xlink:href="#g24" y="6596"/></g><g><use xlink:href="#g20" y="6919"/><use xlink:href="#g13" y="6936"/><use xlink:href="#g14" y="6953"/><use xlink:href="#g13" y="6970"/><use xlink:href="#g23" y="6987"/><use xlink:href="#g16" y="7004"/><use xlink:href="#g25" y="7021"/><rect x="0" y="7038" width="8" height="17" class="foreground"/><use xlink:href="#g4" y="7038"/></g><g><use xlink:href="#g20" y="7378"/><use xlink:href="#g13" y="7395"/><use xlink:href="#g26" y="7412"/><use xlink:href="#g13" y="7429"/><use xlink:href="#g23" y="7446"/><use xlink:href="#g16" y="7463"/><rect x="232" y="7480" width="8" height="17" class="foreground"/><use xlink:href="#g17" y="7480"/></g><g><use xlink:href="#g20" y="7820"/><use xlink:href="#g13" y="7837"/><use xlink:href="#g26" y="7854"/><use xlink:href="#g13" y="7871"/><use xlink:href="#g23" y="7888"/><use xlink:href="#g16" y="7905"/><rect x="240" y="7922" width="8" height="17" class="foreground"/><use xlink:href="#g27" y="7922"/></g><g><use xlink:href="#g20" y="8245"/><use xlink:href="#g13" y="8262"/><use xlink:href="#g26" y="8279"/><use xlink:href="#g13" y="8296"/><use xlink:href="#g23" y="8313"/><use xlink:href="#g16" y="8330"/><use xlink:href="#g28" y="8347"/><rect x="0" y="8364" width="8" height="17" class="foreground"/><use xlink:href="#g4" y="8364"/></g><g><use xlink:href="#g20" y="8704"/><use xlink:href="#g13" y="8721"/><use xlink:href="#g26" y="8738"/><use xlink:href="#g13" y="8755"/><use xlink:href="#g29" y="8772"/><use xlink:href="#g16" y="8789"/><rect x="232" y="8806" width="8" height="17" class="foreground"/><use xlink:href="#g17" y="8806"/></g><g><use xlink:href="#g20" y="9146"/><use xlink:href="#g13" y="9163"/><use xlink:href="#g26" y="9180"/><use xlink:href="#g13" y="9197"/><use xlink:href="#g29" y="9214"/><use xlink:href="#g16" y="9231"/><rect x="240" y="9248" width="8" height="17" class="foreground"/><use xlink:href="#g30" y="9248"/></g><g><use xlink:href="#g20" y="9571"/><use xlink:href="#g13" y="9588"/><use xlink:href="#g26" y="9605"/><use xlink:href="#g13" y="9622"/><use xlink:href="#g29" y="9639"/><use xlink:href="#g16" y="9656"/><use xlink:href="#g31" y="9673"/><rect x="0" y="9690" width="8" height="17" class="foreground"/><use xlink:href="#g4" y="9690"/></g><g><use xlink:href="#g20" y="10030"/><use xlink:href="#g13" y="10047"/><use xlink:href="#g26" y="10064"/><use xlink:href="#g13" y="10081"/><use xlink:href="#g32" y="10098"/><use xlink:href="#g16" y="10115"/><rect x="232" y="10132" width="8" height="17" class="foreground"/><use xlink:href="#g17" y="10132"/></g><g><use xlink:href="#g20" y="10472"/><use xlink:href="#g13" y="10489"/><use xlink:href="#g26" y="10506"/><use xlink:href="#g13" y="10523"/><use xlink:href="#g32" y="10540"/><use xlink:href="#g16" y="10557"/><rect x="240" y="10574" width="8" height="17" class="foreground"/><use xlink:href="#g33" y="10574"/></g><g><use xlink:href="#g20" y="10897"/><use xlink:href="#g13" y="10914"/><use xlink:href="#g26" y="10931"/><use xlink:href="#g13" y="10948"/><use xlink:href="#g32" y="10965"/><use xlink:href="#g16" y="10982"/><use xlink:href="#g34" y="10999"/><rect x="0" y="11016" width="8" height="17" class="foreground"/><use xlink:href="#g4" y="11016"/></g><g><use xlink:href="#g20" y="11356"/><use xlink:href="#g13" y="11373"/><use xlink:href="#g35" y="11390"/><use xlink:href="#g13" y="11407"/><use xlink:href="#g32" y="11424"/><use xlink:href="#g16" y="11441"/><rect x="232" y="11458" width="8" height="17" class="foreground"/><use xlink:href="#g17" y="11458"/></g><g><use xlink:href="#g20" y="11798"/><use xlink:href="#g13" y="11815"/><use xlink:href="#g35" y="11832"/><use xlink:href="#g13" y="11849"/><use xlink:href="#g32" y="11866"/><use xlink:href="#g16" y="11883"/><rect x="240" y="11900" width="8" height="17" class="foreground"/><use xlink:href="#g36" y="11900"/></g><g><use xlink:href="#g20" y="12223"/><use xlink:href="#g13" y="12240"/><use xlink:href="#g35" y="12257"/><use xlink:href="#g13" y="12274"/><use xlink:href="#g32" y="12291"/><use xlink:href="#g16" y="12308"/><use xlink:href="#g37" y="12325"/><rect x="0" y="12342" width="8" height="17" class="foreground"/><use xlink:href="#g4" y="12342"/></g><g><use xlink:href="#g38" y="12665"/><use xlink:href="#g13" y="12682"/><use xlink:href="#g35" y="12699"/><use xlink:href="#g13" y="12716"/><use xlink:href="#g32" y="12733"/><use xlink:href="#g16" y="12750"/><use xlink:href="#g39" y="12767"/><rect x="0" y="12784" width="8" height="17" class="foreground"/><use xlink:href="#g4" y="12784"/></g><g><use xlink:href="#g38" y="13090"/><use xlink:href="#g13" y="13107"/><use xlink:href="#g35" y="13124"/><use xlink:href="#g13" y="13141"/><use xlink:href="#g32" y="13158"/><use xlink:href="#g16" y="13175"/><use xlink:href="#g39" y="13192"/><use xlink:href="#g5" y="13209"/><rect x="64" y="13226" width="8" height="17" class="foreground"/><use xlink:href="#g40" y="13226"/></g><g><use xlink:href="#g38" y="13532"/><use xlink:href="#g13" y="13549"/><use xlink:href="#g35" y="13566"/><use xlink:href="#g13" y="13583"/><use xlink:href="#g32" y="13600"/><use xlink:href="#g16" y="13617"/><use xlink:href="#g39" y="13634"/><use xlink:href="#g5" y="13651"/><rect x="320" y="13668" width="8" height="17" class="foreground"/><use xlink:href="#g41" y="13668"/></g><g><use xlink:href="#g38" y="13957"/><use xlink:href="#g13" y="13974"/><use xlink:href="#g35" y="13991"/><use xlink:href="#g13" y="14008"/><use xlink:href="#g32" y="14025"/><use xlink:href="#g16" y="14042"/><use xlink:href="#g39" y="14059"/><use xlink:href="#g5" y="14076"/><use xlink:href="#g42" y="14093"/><rect x="0" y="14110" width="8" height="17" class="foreground"/><use xlink:href="#g4" y="14110"/></g><g><rect x="256" y="14552" width="8" height="17" class="foreground"/><use xlink:href="#g10" y="14552"/></g><g><rect x="264" y="14994" width="8" height="17" class="foreground"/><use xlink:href="#g11" y="14994"/></g><g><use xlink:href="#g12" y="15334"/><use xlink:href="#g13" y="15351"/><use xlink:href="#g14" y="15368"/><use xlink:href="#g13" y="15385"/><use xlink:href="#g15" y="15402"/><use xlink:href="#g16" y="15419"/><rect x="232" y="15436" width="8" height="17" class="foreground"/><use xlink:href="#g17" y="15436"/></g><g><use xlink:href="#g12" y="15776"/><use xlink:href="#g13" y="15793"/><use xlink:href="#g14" y="15810"/><use xlink:href="#g13" y="15827"/><use xlink:href="#g15" y="15844"/><use xlink:href="#g16" y="15861"/><rect x="240" y="15878" width="8" height="17" class="foreground"/><use xlink:href="#g18" y="15878"/></g><g><use xlink:href="#g12" y="16201"/><use xlink:href="#g13" y="16218"/><use xlink:href="#g14" y="16235"/><use xlink:href="#g13" y="16252"/><use xlink:href="#g15" y="16269"/><use xlink:href="#g16" y="16286"/><use xlink:href="#g19" y="16303"/><rect x="0" y="16320" width="8" height="17" class="foreground"/><use xlink:href="#g4" y="16320"/></g><g><use xlink:href="#g20" y="16660"/><use xlink:href="#g13" y="16677"/><use xlink:href="#g14" y="16694"/><use xlink:href="#g13" y="16711"/><use xlink:href="#g15" y="16728"/><use xlink:href="#g16" y="16745"/><rect x="232" y="16762" width="8" height="17" class="foreground"/><use xlink:href="#g17" y="16762"/></g><g><use xlink:href="#g20" y="17102"/><use xlink:href="#g13" y="17119"/><use xlink:href="#g14" y="17136"/><use xlink:href="#g13" y="17153"/><use xlink:href="#g15" y="17170"/><use xlink:href="#g16" y="17187"/><rect x="240" y="17204" width="8" height="17" class="foreground"/><use xlink:href="#g43" y="17204"/></g><g><use xlink:href="#g20" y="17527"/><use xlink:href="#g13" y="17544"/><use xlink:href="#g14" y="17561"/><use xlink:href="#g13" y="17578"/><use xlink:href="#g15" y="17595"/><use xlink:href="#g16" y="17612"/><use xlink:href="#g44" y="17629"/><rect x="0" y="17646" width="8" height="17" class="foreground"/><use xlink:href="#g4" y="17646"/></g><g><use xlink:href="#g45" y="17986"/><use xlink:href="#g13" y="18003"/><use xlink:href="#g14" y="18020"/><use xlink:href="#g13" y="18037"/><use xlink:href="#g15" y="18054"/><use xlink:href="#g16" y="18071"/><rect x="232" y="18088" width="8" height="17" class="foreground"/><use xlink:href="#g17" y="18088"/></g><g><use xlink:href="#g45" y="18428"/><use xlink:href="#g13" y="18445"/><use xlink:href="#g14" y="18462"/><use xlink:href="#g13" y="18479"/><use xlink:href="#g15" y="18496"/><use xlink:href="#g16" y="18513"/><rect x="240" y="18530" width="8" height="17" class="foreground"/><use xlink:href="#g36" y="18530"/></g><g><use xlink:href="#g45" y="18853"/><use xlink:href="#g13" y="18870"/><use xlink:href="#g14" y="18887"/><use xlink:href="#g13" y="18904"/><use xlink:href="#g15" y="18921"/><use xlink:href="#g16" y="18938"/><use xlink:href="#g37" y="18955"/><rect x="0" y="18972" width="8" height="17" class="foreground"/><use xlink:href="#g4" y="18972"/></g><g><use xlink:href="#g46" y="19312"/><use xlink:href="#g13" y="19329"/><use xlink:href="#g14" y="19346"/><use xlink:href="#g13" y="19363"/><use xlink:href="#g15" y="19380"/><use xlink:href="#g16" y="19397"/><rect x="232" y="19414" width="8" height="17" class="foreground"/><use xlink:href="#g17" y="19414"/></g><g><use xlink:href="#g46" y="19754"/><use xlink:href="#g13" y="19771"/><use xlink:href="#g14" y="19788"/><use xlink:href="#g13" y="19805"/><use xlink:href="#g15" y="19822"/><use xlink:href="#g16" y="19839"/><rect x="240" y="19856" width="8" height="17" class="foreground"/><use xlink:href="#g33" y="19856"/></g><g><use xlink:href="#g46" y="20179"/><use xlink:href="#g13" y="20196"/><use xlink:href="#g14" y="20213"/><use xlink:href="#g13" y="20230"/><use xlink:href="#g15" y="20247"/><use xlink:href="#g16" y="20264"/><use xlink:href="#g34" y="20281"/><rect x="0" y="20298" width="8" height="17" class="foreground"/><use xlink:href="#g4" y="20298"/></g><g><use xlink:href="#g46" y="20638"/><use xlink:href="#g13" y="20655"/><use xlink:href="#g47" y="20672"/><use xlink:href="#g13" y="20689"/><use xlink:href="#g15" y="20706"/><use xlink:href="#g16" y="20723"/><rect x="232" y="20740" width="8" height="17" class="foreground"/><use xlink:href="#g17" y="20740"/></g><g><use xlink:href="#g46" y="21080"/><use xlink:href="#g13" y="21097"/><use xlink:href="#g47" y="21114"/><use xlink:href="#g13" y="21131"/><use xlink:href="#g15" y="21148"/><use xlink:href="#g16" y="21165"/><rect x="240" y="21182" width="8" height="17" class="foreground"/><use xlink:href="#g48" y="21182"/></g><g><use xlink:href="#g46" y="21505"/><use xlink:href="#g13" y="21522"/><use xlink:href="#g47" y="21539"/><use xlink:href="#g13" y="21556"/><use xlink:href="#g15" y="21573"/><use xlink:href="#g16" y="21590"/><use xlink:href="#g49" y="21607"/><rect x="0" y="21624" width="8" height="17" class="foreground"/><use xlink:href="#g4" y="21624"/></g><g><use xlink:href="#g46" y="21964"/><use xlink:href="#g13" y="21981"/><use xlink:href="#g50" y="21998"/><use xlink:href="#g13" y="22015"/><use xlink:href="#g15" y="22032"/><use xlink:href="#g16" y="22049"/><rect x="232" y="22066" width="8" height="17" class="foreground"/><use xlink:href="#g17" y="22066"/></g><g><use xlink:href="#g46" y="22406"/><use xlink:href="#g13" y="22423"/><use xlink:href="#g50" y="22440"/><use xlink:href="#g13" y="22457"/><use xlink:href="#g15" y="22474"/><use xlink:href="#g16" y="22491"/><rect x="240" y="22508" width="8" height="17" class="foreground"/><use xlink:href="#g24" y="22508"/></g><g><use xlink:href="#g46" y="22831"/><use xlink:href="#g13" y="22848"/><use xlink:href="#g50" y="22865"/><use xlink:href="#g13" y="22882"/><use xlink:href="#g15" y="22899"/><use xlink:href="#g16" y="22916"/><use xlink:href="#g25" y="22933"/><rect x="0" y="22950" width="8" height="17" class="foreground"/><use xlink:href="#g4" y="22950"/></g><g><use xlink:href="#g46" y="23290"/><use xlink:href="#g13" y="23307"/><use xlink:href="#g51" y="23324"/><use xlink:href="#g13" y="23341"/><use xlink:href="#g15" y="23358"/><use xlink:href="#g16" y="23375"/><rect x="232" y="23392" width="8" height="17" class="foreground"/><use xlink:href="#g17" y="23392"/></g><g><use xlink:href="#g46" y="23732"/><use xlink:href="#g13" y="23749"/><use xlink:href="#g51" y="23766"/><use xlink:href="#g13" y="23783"/><use xlink:href="#g15" y="23800"/><use xlink:href="#g16" y="23817"/><rect x="240" y="23834" width="8" height="17" class="foreground"/><use xlink:href="#g21" y="23834"/></g><g><use xlink:href="#g46" y="24157"/><use xlink:href="#g13" y="24174"/><use xlink:href="#g51" y="24191"/><use xlink:href="#g13" y="24208"/><use xlink:href="#g15" y="24225"/><use xlink:href="#g16" y="24242"/><use xlink:href="#g22" y="24259"/><rect x="0" y="24276" width="8" height="17" class="foreground"/><use xlink:href="#g4" y="24276"/></g><g><use xlink:href="#g46" y="24616"/><use xlink:href="#g13" y="24633"/><use xlink:href="#g51" y="24650"/><use xlink:href="#g13" y="24667"/><use xlink:href="#g52" y="24684"/><use xlink:href="#g16" y="24701"/><rect x="232" y="24718" width="8" height="17" class="foreground"/><use xlink:href="#g17" y="24718"/></g><g><use xlink:href="#g46" y="25058"/><use xlink:href="#g13" y="25075"/><use xlink:href="#g51" y="25092"/><use xlink:href="#g13" y="25109"/><use xlink:href="#g52" y="25126"/><use xlink:href="#g16" y="25143"/><rect x="240" y="25160" width="8" height="17" class="foreground"/><use xlink:href="#g30" y="25160"/></g><g><use xlink:href="#g46" y="25483"/><use xlink:href="#g13" y="25500"/><use xlink:href="#g51" y="25517"/><use xlink:href="#g13" y="25534"/><use xlink:href="#g52" y="25551"/><use xlink:href="#g16" y="25568"/><use xlink:href="#g31" y="25585"/><rect x="0" y="25602" width="8" height="17" class="foreground"/><use xlink:href="#g4" y="25602"/></g><g><use xlink:href="#g46" y="25942"/><use xlink:href="#g13" y="25959"/><use xlink:href="#g51" y="25976"/><use xlink:href="#g13" y="25993"/><use xlink:href="#g53" y="26010"/><use xlink:href="#g16" y="26027"/><rect x="232" y="26044" width="8" height="17" class="foreground"/><use xlink:href="#g17" y="26044"/></g><g><use xlink:href="#g46" y="26384"/><use xlink:href="#g13" y="26401"/><use xlink:href="#g51" y="26418"/><use xlink:href="#g13" y="26435"/><use xlink:href="#g53" y="26452"/><use xlink:href="#g16" y="26469"/><rect x="240" y="26486" width="8" height="17" class="foreground"/><use xlink:href="#g27" y="26486"/></g><g><use xlink:href="#g46" y="26809"/><use xlink:href="#g13" y="26826"/><use xlink:href="#g51" y="26843"/><use xlink:href="#g13" y="26860"/><use xlink:href="#g53" y="26877"/><use xlink:href="#g16" y="26894"/><use xlink:href="#g28" y="26911"/><rect x="0" y="26928" width="8" height="17" class="foreground"/><use xlink:href="#g4" y="26928"/></g><g><use xlink:href="#g46" y="27251"/><use xlink:href="#g13" y="27268"/><use xlink:href="#g51" y="27285"/><use xlink:href="#g13" y="27302"/><use xlink:href="#g54" y="27319"/><use xlink:href="#g16" y="27336"/><use xlink:href="#g39" y="27353"/><rect x="0" y="27370" width="8" height="17" class="foreground"/><use xlink:href="#g4" y="27370"/></g><g><use xlink:href="#g46" y="27676"/><use xlink:href="#g13" y="27693"/><use xlink:href="#g51" y="27710"/><use xlink:href="#g13" y="27727"/><use xlink:href="#g54" y="27744"/><use xlink:href="#g16" y="27761"/><use xlink:href="#g39" y="27778"/><use xlink:href="#g5" y="27795"/><rect x="64" y="27812" width="8" height="17" class="foreground"/><use xlink:href="#g40" y="27812"/></g><g><use xlink:href="#g46" y="28118"/><use xlink:href="#g13" y="28135"/><use xlink:href="#g51" y="28152"/><use xlink:href="#g13" y="28169"/><use xlink:href="#g54" y="28186"/><use xlink:href="#g16" y="28203"/><use xlink:href="#g39" y="28220"/><use xlink:href="#g5" y="28237"/><rect x="320" y="28254" width="8" height="17" class="foreground"/><use xlink:href="#g41" y="28254"/></g><g><use xlink:href="#g46" y="28543"/><use xlink:href="#g13" y="28560"/><use xlink:href="#g51" y="28577"/><use xlink:href="#g13" y="28594"/><use xlink:href="#g54" y="28611"/><use xlink:href="#g16" y="28628"/><use xlink:href="#g39" y="28645"/><use xlink:href="#g5" y="28662"/><use xlink:href="#g42" y="28679"/><rect x="0" y="28696" width="8" height="17" class="foreground"/><use xlink:href="#g4" y="28696"/></g><g><rect x="256" y="29138" width="8" height="17" class="foreground"/><use xlink:href="#g10" y="29138"/></g><g><rect x="264" y="29580" width="8" height="17" class="foreground"/><use xlink:href="#g55" y="29580"/></g><g><use xlink:href="#g12" y="29920"/><use xlink:href="#g13" y="29937"/><use xlink:href="#g14" y="29954"/><use xlink:href="#g13" y="29971"/><use xlink:href="#g15" y="29988"/><use xlink:href="#g16" y="30005"/><rect x="232" y="30022" width="8" height="17" class="foreground"/><use xlink:href="#g17" y="30022"/></g><g><use xlink:href="#g12" y="30362"/><use xlink:href="#g13" y="30379"/><use xlink:href="#g14" y="30396"/><use xlink:href="#g13" y="30413"/><use xlink:href="#g15" y="30430"/><use xlink:href="#g16" y="30447"/><rect x="240" y="30464" width="8" height="17" class="foreground"/><use xlink:href="#g27" y="30464"/></g><g><use xlink:href="#g12" y="30787"/><use xlink:href="#g13" y="30804"/><use xlink:href="#g14" y="30821"/><use xlink:href="#g13" y="30838"/><use xlink:href="#g15" y="30855"/><use xlink:href="#g16" y="30872"/><use xlink:href="#g28" y="30889"/><rect x="0" y="30906" width="8" height="17" class="foreground"/><use xlink:href="#g4" y="30906"/></g><g><use xlink:href="#g12" y="31246"/><use xlink:href="#g13" y="31263"/><use xlink:href="#g14" y="31280"/><use xlink:href="#g13" y="31297"/><use xlink:href="#g56" y="31314"/><use xlink:href="#g16" y="31331"/><rect x="232" y="31348" width="8" height="17" class="foreground"/><use xlink:href="#g17" y="31348"/></g><g><use xlink:href="#g12" y="31688"/><use xlink:href="#g13" y="31705"/><use xlink:href="#g14" y="31722"/><use xlink:href="#g13" y="31739"/><use xlink:href="#g56" y="31756"/><use xlink:href="#g16" y="31773"/><rect x="240" y="31790" width="8" height="17" class="foreground"/><use xlink:href="#g21" y="31790"/></g><g><use xlink:href="#g12" y="32113"/><use xlink:href="#g13" y="32130"/><use xlink:href="#g14" y="32147"/><use xlink:href="#g13" y="32164"/><use xlink:href="#g56" y="32181"/><use xlink:href="#g16" y="32198"/><use xlink:href="#g22" y="32215"/><rect x="0" y="32232" width="8" height="17" class="foreground"/><use xlink:href="#g4" y="32232"/></g><g><use xlink:href="#g12" y="32572"/><use xlink:href="#g13" y="32589"/><use xlink:href="#g14" y="32606"/><use xlink:href="#g13" y="32623"/><use xlink:href="#g57" y="32640"/><use xlink:href="#g16" y="32657"/><rect x="232" y="32674" width="8" height="17" class="foreground"/><use xlink:href="#g17" y="32674"/></g><g><use xlink:href="#g12" y="33014"/><use xlink:href="#g13" y="33031"/><use xlink:href="#g14" y="33048"/><use xlink:href="#g13" y="33065"/><use xlink:href="#g57" y="33082"/><use xlink:href="#g16" y="33099"/><rect x="240" y="33116" width="8" height="17" class="foreground"/><use xlink:href="#g48" y="33116"/></g><g><use xlink:href="#g12" y="33439"/><use xlink:href="#g13" y="33456"/><use xlink:href="#g14" y="33473"/><use xlink:href="#g13" y="33490"/><use xlink:href="#g57" y="33507"/><use xlink:href="#g16" y="33524"/><use xlink:href="#g49" y="33541"/><rect x="0" y="33558" width="8" height="17" class="foreground"/><use xlink:href="#g4" y="33558"/></g><g><use xlink:href="#g12" y="33898"/><use xlink:href="#g13" y="33915"/><use xlink:href="#g58" y="33932"/><use xlink:href="#g13" y="33949"/><use xlink:href="#g57" y="33966"/><use xlink:href="#g16" y="33983"/><rect x="232" y="34000" width="8" height="17" class="foreground"/><use xlink:href="#g17" y="34000"/></g><g><use xlink:href="#g12" y="34340"/><use xlink:href="#g13" y="34357"/><use xlink:href="#g58" y="34374"/><use xlink:href="#g13" y="34391"/><use xlink:href="#g57" y="34408"/><use xlink:href="#g16" y="34425"/><rect x="240" y="34442" width="8" height="17" class="foreground"/><use xlink:href="#g36" y="34442"/></g><g><use xlink:href="#g12" y="34765"/><use xlink:href="#g13" y="34782"/><use xlink:href="#g58" y="34799"/><use xlink:href="#g13" y="34816"/><use xlink:href="#g57" y="34833"/><use xlink:href="#g16" y="34850"/><use xlink:href="#g37" y="34867"/><rect x="0" y="34884" width="8" height="17" class="foreground"/><use xlink:href="#g4" y="34884"/></g><g><use xlink:href="#g59" y="35224"/><use xlink:href="#g13" y="35241"/><use xlink:href="#g58" y="35258"/><use xlink:href="#g13" y="35275"/><use xlink:href="#g57" y="35292"/><use xlink:href="#g16" y="35309"/><rect x="232" y="35326" width="8" height="17" class="foreground"/><use xlink:href="#g17" y="35326"/></g><g><use xlink:href="#g59" y="35666"/><use xlink:href="#g13" y="35683"/><use xlink:href="#g58" y="35700"/><use xlink:href="#g13" y="35717"/><use xlink:href="#g57" y="35734"/><use xlink:href="#g16" y="35751"/><rect x="240" y="35768" width="8" height="17" class="foreground"/><use xlink:href="#g43" y="35768"/></g><g><use xlink:href="#g59" y="36091"/><use xlink:href="#g13" y="36108"/><use xlink:href="#g58" y="36125"/><use xlink:href="#g13" y="36142"/><use xlink:href="#g57" y="36159"/><use xlink:href="#g16" y="36176"/><use xlink:href="#g44" y="36193"/><rect x="0" y="36210" width="8" height="17" class="foreground"/><use xlink:href="#g4" y="36210"/></g><g><use xlink:href="#g60" y="36550"/><use xlink:href="#g13" y="36567"/><use xlink:href="#g58" y="36584"/><use xlink:href="#g13" y="36601"/><use xlink:href="#g57" y="36618"/><use xlink:href="#g16" y="36635"/><rect x="232" y="36652" width="8" height="17" class="foreground"/><use xlink:href="#g17" y="36652"/></g><g><use xlink:href="#g60" y="36992"/><use xlink:href="#g13" y="37009"/><use xlink:href="#g58" y="37026"/><use xlink:href="#g13" y="37043"/><use xlink:href="#g57" y="37060"/><use xlink:href="#g16" y="37077"/><rect x="240" y="37094" width="8" height="17" class="foreground"/><use xlink:href="#g24" y="37094"/></g><g><use xlink:href="#g60" y="37417"/><use xlink:href="#g13" y="37434"/><use xlink:href="#g58" y="37451"/><use xlink:href="#g13" y="37468"/><use xlink:href="#g57" y="37485"/><use xlink:href="#g16" y="37502"/><use xlink:href="#g25" y="37519"/><rect x="0" y="37536" width="8" height="17" class="foreground"/><use xlink:href="#g4" y="37536"/></g><g><use xlink:href="#g60" y="37876"/><use xlink:href="#g13" y="37893"/><use xlink:href="#g61" y="37910"/><use xlink:href="#g13" y="37927"/><use xlink:href="#g57" y="37944"/><use xlink:href="#g16" y="37961"/><rect x="232" y="37978" width="8" height="17" class="foreground"/><use xlink:href="#g17" y="37978"/></g><g><use xlink:href="#g60" y="38318"/><use xlink:href="#g13" y="38335"/><use xlink:href="#g61" y="38352"/><use xlink:href="#g13" y="38369"/><use xlink:href="#g57" y="38386"/><use xlink:href="#g16" y="38403"/><rect x="240" y="38420" width="8" height="17" class="foreground"/><use xlink:href="#g30" y="38420"/></g><g><use xlink:href="#g60" y="38743"/><use xlink:href="#g13" y="38760"/><use xlink:href="#g61" y="38777"/><use xlink:href="#g13" y="38794"/><use xlink:href="#g57" y="38811"/><use xlink:href="#g16" y="38828"/><use xlink:href="#g31" y="38845"/><rect x="0" y="38862" width="8" height="17" class="foreground"/><use xlink:href="#g4" y="38862"/></g><g><use xlink:href="#g60" y="39202"/><use xlink:href="#g13" y="39219"/><use xlink:href="#g61" y="39236"/><use xlink:href="#g13" y="39253"/><use xlink:href="#g62" y="39270"/><use xlink:href="#g16" y="39287"/><rect x="232" y="39304" width="8" height="17" class="foreground"/><use xlink:href="#g17" y="39304"/></g><g><use xlink:href="#g60" y="39644"/><use xlink:href="#g13" y="39661"/><use xlink:href="#g61" y="39678"/><use xlink:href="#g13" y="39695"/><use xlink:href="#g62" y="39712"/><use xlink:href="#g16" y="39729"/><rect x="240" y="39746" width="8" height="17" class="foreground"/><use xlink:href="#g33" y="39746"/></g><g><use xlink:href="#g60" y="40069"/><use xlink:href="#g13" y="40086"/><use xlink:href="#g61" y="40103"/><use xlink:href="#g13" y="40120"/><use xlink:href="#g62" y="40137"/><use xlink:href="#g16" y="40154"/><use xlink:href="#g34" y="40171"/><rect x="0" y="40188" width="8" height="17" class="foreground"/><use xlink:href="#g4" y="40188"/></g><g><use xlink:href="#g60" y="40528"/><use xlink:href="#g13" y="40545"/><use xlink:href="#g63" y="40562"/><use xlink:href="#g13" y="40579"/><use xlink:href="#g62" y="40596"/><use xlink:href="#g16" y="40613"/><rect x="232" y="40630" width="8" height="17" class="foreground"/><use xlink:href="#g17" y="40630"/></g><g><use xlink:href="#g60" y="40970"/><use xlink:href="#g13" y="40987"/><use xlink:href="#g63" y="41004"/><use xlink:href="#g13" y="41021"/><use xlink:href="#g62" y="41038"/><use xlink:href="#g16" y="41055"/><rect x="240" y="41072" width="8" height="17" class="foreground"/><use xlink:href="#g18" y="41072"/></g><g><use xlink:href="#g60" y="41395"/><use xlink:href="#g13" y="41412"/><use xlink:href="#g63" y="41429"/><use xlink:href="#g13" y="41446"/><use xlink:href="#g62" y="41463"/><use xlink:href="#g16" y="41480"/><use xlink:href="#g19" y="41497"/><rect x="0" y="41514" width="8" height="17" class="foreground"/><use xlink:href="#g4" y="41514"/></g><g><use xlink:href="#g64" y="41837"/><use xlink:href="#g13" y="41854"/><use xlink:href="#g63" y="41871"/><use xlink:href="#g13" y="41888"/><use xlink:href="#g62" y="41905"/><use xlink:href="#g16" y="41922"/><use xlink:href="#g65" y="41939"/><rect x="0" y="41956" width="8" height="17" class="foreground"/><use xlink:href="#g4" y="41956"/></g><g><use xlink:href="#g64" y="42262"/><use xlink:href="#g13" y="42279"/><use xlink:href="#g63" y="42296"/><use xlink:href="#g13" y="42313"/><use xlink:href="#g62" y="42330"/><use xlink:href="#g16" y="42347"/><use xlink:href="#g65" y="42364"/><use xlink:href="#g5" y="42381"/><rect x="64" y="42398" width="8" height="17" class="foreground"/><use xlink:href="#g66" y="42398"/></g><g><use xlink:href="#g64" y="42704"/><use xlink:href="#g13" y="42721"/><use xlink:href="#g63" y="42738"/><use xlink:href="#g13" y="42755"/><use xlink:href="#g62" y="42772"/><use xlink:href="#g16" y="42789"/><use xlink:href="#g65" y="42806"/><use xlink:href="#g5" y="42823"/><rect x="72" y="42840" width="8" height="17" class="foreground"/><use xlink:href="#g67" y="42840"/></g><g><use xlink:href="#g64" y="43146"/><use xlink:href="#g13" y="43163"/><use xlink:href="#g63" y="43180"/><use xlink:href="#g13" y="43197"/><use xlink:href="#g62" y="43214"/><use xlink:href="#g16" y="43231"/><use xlink:href="#g65" y="43248"/><use xlink:href="#g5" y="43265"/><rect x="80" y="43282" width="8" height="17" class="foreground"/><use xlink:href="#g68" y="43282"/></g><g><use xlink:href="#g64" y="43588"/><use xlink:href="#g13" y="43605"/><use xlink:href="#g63" y="43622"/><use xlink:href="#g13" y="43639"/><use xlink:href="#g62" y="43656"/><use xlink:href="#g16" y="43673"/><use xlink:href="#g65" y="43690"/><use xlink:href="#g5" y="43707"/><rect x="88" y="43724" width="8" height="17" class="foreground"/><use xlink:href="#g69" y="43724"/></g><g><use xlink:href="#g64" y="44030"/><use xlink:href="#g13" y="44047"/><use xlink:href="#g63" y="44064"/><use xlink:href="#g13" y="44081"/><use xlink:href="#g62" y="44098"/><use xlink:href="#g16" y="44115"/><use xlink:href="#g65" y="44132"/><use xlink:href="#g5" y="44149"/><rect x="96" y="44166" width="8" height="17" class="foreground"/><use xlink:href="#g70" y="44166"/></g><g><use xlink:href="#g64" y="44455"/><use xlink:href="#g13" y="44472"/><use xlink:href="#g63" y="44489"/><use xlink:href="#g13" y="44506"/><use xlink:href="#g62" y="44523"/><use xlink:href="#g16" y="44540"/><use xlink:href="#g65" y="44557"/><use xlink:href="#g5" y="44574"/><use xlink:href="#g71" y="44591"/><rect x="0" y="44608" width="8" height="17" class="foreground"/><use xlink:href="#g4" y="44608"/></g><g><use xlink:href="#g64" y="44880"/><use xlink:href="#g13" y="44897"/><use xlink:href="#g63" y="44914"/><use xlink:href="#g13" y="44931"/><use xlink:href="#g62" y="44948"/><use xlink:href="#g16" y="44965"/><use xlink:href="#g65" y="44982"/><use xlink:href="#g5" y="44999"/><use xlink:href="#g71" y="45016"/><use xlink:href="#g72" y="45033"/><rect x="0" y="45050" width="8" height="17" class="foreground"/><use xlink:href="#g4" y="45050"/></g></g></svg>
</svg>